HIERARCHY
ROOT RootJoint
{
    OFFSET   0.000000   0.000000   0.000000
    CHANNELS 6 Xposition Yposition Zposition Xrotation Yrotation Zrotation
    JOINT pelvis_lowerback
    {
        OFFSET   0.000000   0.093605   0.000000
        CHANNELS 3 Xrotation Yrotation Zrotation
        JOINT lowerback_torso
        {
            OFFSET   0.000000   0.100000   0.000000
            CHANNELS 3 Xrotation Yrotation Zrotation
            JOINT torso_head
            {
                OFFSET   0.000000   0.282350   0.000000
                CHANNELS 3 Xrotation Yrotation Zrotation
                End Site
                {
                    OFFSET   0.000000   0.192650   0.000000
                }
            }
            JOINT rTorso_Clavicle
            {
                OFFSET  -0.001000   0.157500   0.000000
                CHANNELS 3 Xrotation Yrotation Zrotation
                JOINT rShoulder
                {
                    OFFSET  -0.117647   0.000000   0.000000
                    CHANNELS 3 Xrotation Yrotation Zrotation
                    JOINT rElbow
                    {
                        OFFSET  -0.245000   0.000000   0.000000
                        CHANNELS 3 Xrotation Yrotation Zrotation
                        JOINT rWrist
                        {
                            OFFSET  -0.240000   0.000000   0.000000
                            CHANNELS 3 Xrotation Yrotation Zrotation
                            End Site
                            {
                                OFFSET  -0.116353  -0.002500   0.000000
                            }
                        }
                    }
                }
            }
            JOINT lTorso_Clavicle
            {
                OFFSET   0.001000   0.157500   0.000000
                CHANNELS 3 Xrotation Yrotation Zrotation
                JOINT lShoulder
                {
                    OFFSET   0.117647   0.000000   0.000000
                    CHANNELS 3 Xrotation Yrotation Zrotation
                    JOINT lElbow
                    {
                        OFFSET   0.245000   0.000000   0.000000
                        CHANNELS 3 Xrotation Yrotation Zrotation
                        JOINT lWrist
                        {
                            OFFSET   0.240000   0.000000   0.000000
                            CHANNELS 3 Xrotation Yrotation Zrotation
                            End Site
                            {
                                OFFSET   0.116353  -0.002500   0.000000
                            }
                        }
                    }
                }
            }
        }
    }
    JOINT rHip
    {
        OFFSET  -0.100000  -0.051395   0.000000
        CHANNELS 3 Xrotation Yrotation Zrotation
        JOINT rKnee
        {
            OFFSET   0.000000  -0.410000   0.000000
            CHANNELS 3 Xrotation Yrotation Zrotation
            JOINT rAnkle
            {
                OFFSET   0.000000  -0.390000   0.000000
                CHANNELS 3 Xrotation Yrotation Zrotation
                JOINT rToeJoint
                {
                    OFFSET   0.000000  -0.050000   0.130000
                    CHANNELS 3 Xrotation Yrotation Zrotation
                    End Site
                    {
                        OFFSET  -0.010000   0.002000   0.060000
                    }
                }
            }
        }
    }
    JOINT lHip
    {
        OFFSET   0.100000  -0.051395   0.000000
        CHANNELS 3 Xrotation Yrotation Zrotation
        JOINT lKnee
        {
            OFFSET   0.000000  -0.410000   0.000000
            CHANNELS 3 Xrotation Yrotation Zrotation
            JOINT lAnkle
            {
                OFFSET   0.000000  -0.390000   0.000000
                CHANNELS 3 Xrotation Yrotation Zrotation
                JOINT lToeJoint
                {
                    OFFSET   0.000000  -0.050000   0.130000
                    CHANNELS 3 Xrotation Yrotation Zrotation
                    End Site
                    {
                        OFFSET   0.010000   0.002000   0.060000
                    }
                }
            }
        }
    }
}
MOTION
Frames: 12
Frame Time:   0.008333
 -1.767065   0.891233   3.706978  -5.921467 -30.801412   0.553082   4.955175   1.719568  -1.222792  -2.704649   0.719466  -0.506884  -2.555681  -0.264597   1.835970  -2.389577  12.729005  -4.270107  -5.013133  34.404376  25.005270   0.032089  86.187545  -0.031799  -7.367936   8.476943  -1.071368  -3.872245  -3.931194   3.502774 -27.377913   5.698308 -19.875831  -0.000275 -47.523897  -0.000045 -11.480019  -5.843000  15.078411  -5.519447  -1.997845 -15.794401  28.622845   0.004194  -0.001003 -16.170564  -5.421684   1.026599  -1.242270  -0.001618   0.000593  -1.802494  -3.063547  13.113057  18.306622   0.001778  -0.001530  -2.323166   1.756503  -3.523822 -11.971631   0.024279  -0.014203
 -1.772382   0.892107   3.703809  -5.925984 -30.716285   0.684662   5.137028   1.753112  -1.350172  -2.774865   0.702549  -0.609096  -2.593771  -0.357765   1.795302  -2.407753  12.657755  -4.373910  -4.857726  34.380889  24.989829   0.045744  86.588580  -0.045570  -7.344206   8.365030  -1.129543  -3.921995  -3.952757   3.424253 -27.301241   5.645879 -19.849053  -0.000357 -47.425390  -0.000152 -11.465751  -5.815622  15.058522  -5.244844  -2.169253 -15.505562  28.216680   0.004707  -0.001417 -16.600457  -5.447196   0.908631  -0.836404  -0.002520   0.000644  -2.043210  -2.894312  13.099573  18.733340   0.001284  -0.000027  -2.527090   2.021812  -3.439675 -10.949675   0.016965  -0.006837
 -1.777425   0.892957   3.700757  -5.921310 -30.681233   0.817757   5.309948   1.802289  -1.463367  -2.837362   0.695503  -0.708845  -2.625122  -0.443691   1.758013  -2.429211  12.583288  -4.480437  -4.713471  34.360591  24.970450   0.058616  86.979390  -0.058527  -7.320005   8.341957  -1.162977  -3.966207  -3.966801   3.348457 -27.227067   5.601449 -19.823678  -0.000424 -47.331113  -0.000248 -11.456056  -5.774120  15.025541  -4.973740  -2.323595 -15.227577  27.762101   0.005276  -0.001661 -17.000590  -5.485948   0.786951  -0.468675  -0.003076   0.000507  -2.282152  -2.712575  12.951146  19.198717   0.001387   0.000951  -2.725707   2.267769  -3.362052 -10.070536   0.012746  -0.001962
 -1.782498   0.893127   3.697726  -5.892863 -30.667809   1.020797   5.455130   1.848965  -1.657387  -2.905327   0.693219  -0.823228  -2.647455  -0.524166   1.723767  -2.465284  12.520209  -4.604684  -4.591293  34.349526  24.945900   0.072382  87.352146  -0.072615  -7.297967   8.358444  -1.216826  -4.014017  -3.982949   3.337385 -27.167609   5.545986 -19.770476  -0.000414 -47.242955  -0.000290 -11.450190  -5.721162  14.993761  -4.699775  -2.463888 -14.951946  27.203801   0.006321  -0.002042 -16.945299  -5.485564   0.609491  -0.184682  -0.003182   0.000485  -2.519385  -2.529244  12.678994  19.651639   0.001692   0.001507  -2.912290   2.494607  -3.290446  -9.276371   0.010074   0.001290
 -1.787263   0.893585   3.694767  -5.868089 -30.695923   1.079780   5.607172   1.904764  -1.697577  -2.968302   0.698971  -0.894615  -2.675492  -0.598347   1.688932  -2.492198  12.456344  -4.699877  -4.469108  34.330631  24.921687   0.082524  87.693801  -0.082748  -7.272891   8.373446  -1.248250  -4.054241  -3.986247   3.264464 -27.104342   5.511953 -19.745318  -0.000454 -47.162522  -0.000343 -11.437114  -5.695992  14.987199  -4.484851  -2.613211 -14.608694  26.810592   0.006401  -0.001827 -17.550859  -5.556184   0.529618   0.192931  -0.003790   0.000038  -2.715688  -2.355558  12.442850  20.069415   0.002214   0.001575  -3.084879   2.706991  -3.222097  -8.534754   0.008720   0.003215
 -1.791857   0.894662   3.692077  -5.933759 -30.618700   0.983707   5.790042   1.906527  -1.646894  -2.987561   0.663888  -0.910270  -2.701327  -0.668983   1.665648  -2.494737  12.374995  -4.761186  -4.337596  34.298614  24.910606   0.091633  88.006806  -0.091613  -7.249081   8.365461  -1.260742  -4.083958  -3.998257   3.148061 -27.035149   5.487014 -19.752304  -0.000524 -47.086205  -0.000397 -11.425178  -5.668831  14.953623  -4.355674  -2.748687 -14.173993  26.736145   0.005350  -0.001544 -17.548359  -5.580363   0.454277   0.354769  -0.003452   0.000044  -2.841751  -2.190526  12.206827  20.460971   0.003034   0.001802  -3.245131   2.903811  -3.157658  -7.844960   0.008387   0.005028
 -1.796429   0.895772   3.689587  -5.992407 -30.517388   0.908011   5.936862   1.899347  -1.651296  -3.003806   0.618481  -0.921431  -2.720427  -0.735160   1.649298  -2.490083  12.292284  -4.822326  -4.211076  34.269483  24.906566   0.103813  88.301865  -0.103701  -7.229549   8.352406  -1.269168  -4.111998  -4.016197   3.070664 -26.972449   5.454405 -19.749467  -0.000542 -47.013968  -0.000405 -11.418952  -5.623848  14.889612  -4.181081  -2.907180 -13.759882  26.584420   0.004735  -0.001415 -17.523343  -5.615040   0.351993   0.477848  -0.003045   0.000045  -2.963155  -2.019408  11.882080  20.832455   0.003876   0.001939  -3.395951   3.086351  -3.098103  -7.220255   0.008476   0.006228
 -1.800511   0.896959   3.687406  -6.077656 -30.497348   0.952207   6.136859   1.927276  -1.738154  -3.041812   0.631313  -0.981809  -2.723785  -0.797627   1.702048  -2.520660  12.204066  -4.909905  -4.069198  34.147630  24.885928   0.122815  88.628619  -0.122750  -7.218574   8.349785  -1.189975  -4.185203  -4.047333   3.021553 -26.780988   5.388492 -19.747714  -0.000502 -46.981762  -0.000400 -11.465120  -5.552146  14.808688  -3.983889  -2.951644 -13.525192  26.411846   0.004218  -0.001333 -17.462270  -5.663334   0.349044   0.554280  -0.002640   0.000043  -3.087502  -1.889709  11.227285  21.504436   0.006568   0.001320  -4.300110   2.997833  -3.195898  -6.555673   0.010987   0.004815
 -1.804383   0.898117   3.685415  -6.143022 -30.511328   0.998583   6.311768   1.961277  -1.808515  -3.084052   0.651432  -1.033855  -2.722430  -0.854075   1.756121  -2.560480  12.112305  -5.009621  -3.939318  34.024957  24.853636   0.145093  88.934307  -0.145149  -7.207628   8.356210  -1.119007  -4.252094  -4.067954   2.986944 -26.600878   5.327755 -19.739276  -0.000453 -46.952943  -0.000385 -11.507655  -5.486138  14.709722  -3.787580  -2.974464 -13.298325  26.196017   0.003888  -0.001289 -17.378639  -5.700115   0.331403   0.608314  -0.002242   0.000038  -3.195884  -1.753399  10.471322  22.184283   0.009295   0.000313  -5.150169   2.909543  -3.290781  -5.998784   0.012763   0.003413
 -1.808135   0.899185   3.683540  -6.185688 -30.540372   1.022273   6.463014   1.993068  -1.856555  -3.135259   0.670407  -1.066691  -2.720233  -0.906689   1.808990  -2.606018  12.022020  -5.111770  -3.821919  33.905976  24.816925   0.176949  89.219344  -0.177146  -7.196744   8.363582  -1.069917  -4.316515  -4.083125   2.968738 -26.435497   5.269811 -19.721903  -0.000401 -46.926701  -0.000362 -11.546925  -5.426854  14.621088  -3.603534  -2.992576 -13.046491  25.962223   0.003655  -0.001248 -17.284643  -5.727413   0.310382   0.641533  -0.001869   0.000033  -3.288724  -1.613451   9.676802  22.831486   0.011617  -0.000784  -5.943054   2.826857  -3.381327  -5.488644   0.014111   0.002180
 -1.811807   0.900138   3.681748  -6.210262 -30.575908   1.016910   6.595358   2.020674  -1.885746  -3.193327   0.685897  -1.081179  -2.718254  -0.955959   1.860019  -2.654079  11.934971  -5.211605  -3.715379  33.792040  24.779266   0.236310  89.485063  -0.236643  -7.186050   8.370467  -1.040251  -4.379716  -4.096882   2.965897 -26.285036   5.212085 -19.696505  -0.000349 -46.903644  -0.000332 -11.582087  -5.378428  14.548090  -3.434564  -3.011317 -12.763185  25.728106   0.003463  -0.001197 -17.189339  -5.747160   0.291457   0.656739  -0.001530   0.000027  -3.365986  -1.472695   8.868649  23.439696   0.013442  -0.001824  -6.682812   2.749990  -3.467432  -5.019781   0.015036   0.001149
 -1.815419   0.900971   3.680023  -6.221035 -30.613578   0.981961   6.712447   2.043685  -1.900277  -3.255357   0.697277  -1.080712  -2.716701  -1.002098   1.908736  -2.702216  11.851963  -5.306702  -3.617914  33.683881  24.742585   0.399778  89.732804  -0.400228  -7.175630   8.376523  -1.024110  -4.441827  -4.111253   2.975630 -26.148486   5.153706 -19.665049  -0.000301 -46.883935  -0.000299 -11.612737  -5.342988  14.489231  -3.280444  -3.032671 -12.448788  25.502860   0.003284  -0.001134 -17.097753  -5.760839   0.276757   0.656900  -0.001224   0.000022  -3.428213  -1.332697   8.059859  24.009337   0.014781  -0.002740  -7.373070   2.678754  -3.549159  -4.588681   0.015573   0.000320
